grf
version=1
nRows=17
nColumns=37
inDegrees=no
endheader
time	ground_force_1_vx	ground_force_1_vy	ground_force_1_vz	ground_force_1_px	ground_force_1_py	ground_force_1_pz	ground_moment_1_mx	ground_moment_1_my	ground_moment_1_mz	ground_force_2_vx	ground_force_2_vy	ground_force_2_vz	ground_force_2_px	ground_force_2_py	ground_force_2_pz	ground_moment_2_mx	ground_moment_2_my	ground_moment_2_mz	ground_force_3_vx	ground_force_3_vy	ground_force_3_vz	ground_force_3_px	ground_force_3_py	ground_force_3_pz	ground_moment_3_mx	ground_moment_3_my	ground_moment_3_mz	ground_force_4_vx	ground_force_4_vy	ground_force_4_vz	ground_force_4_px	ground_force_4_py	ground_force_4_pz	ground_moment_4_mx	ground_moment_4_my	ground_moment_4_mz
      3.40000000	      0.00000000	     -0.00000000	      0.00000000	      0.00000000	      0.00000000	      0.00000000	      0.00000000	      0.00000000	      0.00000000	     12.99803925	     53.29106140	   -573.24365234	   -276.86247820	  -1148.98934074	      0.00000000	      0.00000000	      0.00000000	   8946.79604256	     17.63643599	    -48.99645769	   -551.54156494	   -288.64121767	   -697.93278261	      0.00000000	      0.00000000	     -0.00000000	 -10026.63399077	      0.00000000	     -0.00000000	      0.00000000	      0.00000000	      0.00000000	      0.00000000	      0.00000000	      0.00000000	      0.00000000
      3.41000000	      0.00000000	     -0.00000000	      0.00000000	      0.00000000	      0.00000000	      0.00000000	      0.00000000	      0.00000000	      0.00000000	     11.71091461	     57.45432663	   -577.82226562	   -273.54721560	  -1148.02126451	      0.00000000	      0.00000000	      0.00000000	   8249.47654068	     17.63126296	    -52.52947008	   -559.51904297	   -284.37745925	   -696.22522794	      0.00000000	      0.00000000	     -0.00000000	  -9672.90213274	      0.00000000	     -0.00000000	      0.00000000	      0.00000000	      0.00000000	      0.00000000	      0.00000000	      0.00000000	      0.00000000
      3.42000000	      0.00000000	     -0.00000000	      0.00000000	      0.00000000	      0.00000000	      0.00000000	      0.00000000	      0.00000000	      0.00000000	     11.60380363	     61.14987183	   -582.27600098	   -269.64941043	  -1148.61246204	      0.00000000	      0.00000000	      0.00000000	   7606.70002013	     17.93447761	    -56.79504933	   -566.63977051	   -280.67799106	   -695.25370119	      0.00000000	      0.00000000	     -0.00000000	  -9369.70998369	      0.00000000	     -0.00000000	      0.00000000	      0.00000000	      0.00000000	      0.00000000	      0.00000000	      0.00000000	      0.00000000
      3.43000000	      0.00000000	     -0.00000000	      0.00000000	      0.00000000	      0.00000000	      0.00000000	      0.00000000	      0.00000000	      0.00000000	      9.45034599	     63.19133377	   -582.59918213	   -265.05481679	  -1149.39698784	      0.00000000	      0.00000000	      0.00000000	   6874.28626365	     16.80854268	    -60.53512720	   -569.07220459	   -276.37799145	   -694.03068395	      0.00000000	      0.00000000	     -0.00000000	  -8625.27783896	      0.00000000	     -0.00000000	      0.00000000	      0.00000000	      0.00000000	      0.00000000	      0.00000000	      0.00000000	      0.00000000
      3.44000000	      0.00000000	     -0.00000000	      0.00000000	      0.00000000	      0.00000000	      0.00000000	      0.00000000	      0.00000000	      0.00000000	      6.90579081	     65.29059601	   -581.96716309	   -261.69142282	  -1149.54329430	      0.00000000	      0.00000000	      0.00000000	   6487.78828346	     14.82118144	    -63.82571541	   -569.67388916	   -271.72395824	   -692.73128173	      0.00000000	      0.00000000	     -0.00000000	  -8049.71493377	      0.00000000	     -0.00000000	      0.00000000	      0.00000000	      0.00000000	      0.00000000	      0.00000000	      0.00000000	      0.00000000
      3.45000000	      0.00000000	     -0.00000000	      0.00000000	      0.00000000	      0.00000000	      0.00000000	      0.00000000	      0.00000000	      0.00000000	      4.24380445	     67.91952515	   -582.08435059	   -257.53426355	  -1149.46615839	      0.00000000	      0.00000000	      0.00000000	   5881.66013809	     12.70562247	    -67.75163380	   -569.87628174	   -267.89212353	   -691.62465128	      0.00000000	      0.00000000	     -0.00000000	  -7234.57777582	      0.00000000	     -0.00000000	      0.00000000	      0.00000000	      0.00000000	      0.00000000	      0.00000000	      0.00000000	      0.00000000
      3.46000000	      0.00000000	     -0.00000000	      0.00000000	      0.00000000	      0.00000000	      0.00000000	      0.00000000	      0.00000000	      0.00000000	      3.05996895	     70.56881714	   -581.32647705	   -252.86546576	  -1149.84751471	      0.00000000	      0.00000000	      0.00000000	   5329.56156277	     10.46337088	    -70.01702209	   -567.80786133	   -263.71199756	   -690.58311883	      0.00000000	      0.00000000	     -0.00000000	  -6607.04083145	      0.00000000	     -0.00000000	      0.00000000	      0.00000000	      0.00000000	      0.00000000	      0.00000000	      0.00000000	      0.00000000
      3.47000000	      0.00000000	     -0.00000000	      0.00000000	      0.00000000	      0.00000000	      0.00000000	      0.00000000	      0.00000000	      0.00000000	      0.74509978	     73.65501404	   -578.90692139	   -248.83488053	  -1149.87575282	      0.00000000	      0.00000000	      0.00000000	   4895.99902420	      8.14366950	    -72.12086558	   -564.17083740	   -259.36243482	   -689.99413037	      0.00000000	      0.00000000	     -0.00000000	  -5866.47490193	      0.00000000	     -0.00000000	      0.00000000	      0.00000000	      0.00000000	      0.00000000	      0.00000000	      0.00000000	      0.00000000
      3.48000000	      0.00000000	     -0.00000000	      0.00000000	      0.00000000	      0.00000000	      0.00000000	      0.00000000	      0.00000000	      0.00000000	     -1.85182714	     75.98931885	   -580.16528320	   -245.04924639	  -1151.31328963	      0.00000000	      0.00000000	      0.00000000	   4438.25240002	      6.17931532	    -73.72587639	   -561.25531006	   -255.74599916	   -689.00361679	      0.00000000	      0.00000000	     -0.00000000	  -5247.45248484	      0.00000000	     -0.00000000	      0.00000000	      0.00000000	      0.00000000	      0.00000000	      0.00000000	      0.00000000	      0.00000000
      3.49000000	      0.00000000	     -0.00000000	      0.00000000	      0.00000000	      0.00000000	      0.00000000	      0.00000000	      0.00000000	      0.00000000	     -3.33341646	     78.33993530	   -577.48632812	   -240.76552137	  -1150.60517193	      0.00000000	      0.00000000	      0.00000000	   3834.38199827	      4.80444920	    -74.97586102	   -556.10192871	   -251.66514229	   -687.48299643	      0.00000000	     -0.00000000	     -0.00000000	  -4589.17195036	      0.00000000	     -0.00000000	      0.00000000	      0.00000000	      0.00000000	      0.00000000	      0.00000000	      0.00000000	      0.00000000
      3.50000000	      0.00000000	     -0.00000000	      0.00000000	      0.00000000	      0.00000000	      0.00000000	      0.00000000	      0.00000000	      0.00000000	     -4.15087509	     81.52707672	   -575.73010254	   -237.09478518	  -1150.04372272	      0.00000000	      0.00000000	      0.00000000	   3273.82653772	      2.66275740	    -76.36547875	   -553.16204834	   -248.00875368	   -685.55634561	      0.00000000	      0.00000000	      0.00000000	  -3855.77237987	      0.00000000	     -0.00000000	      0.00000000	      0.00000000	      0.00000000	      0.00000000	      0.00000000	      0.00000000	      0.00000000
      3.51000000	      0.00000000	     -0.00000000	      0.00000000	      0.00000000	      0.00000000	      0.00000000	      0.00000000	      0.00000000	      0.00000000	     -4.85091209	     83.80566406	   -574.71539307	   -234.00455580	  -1150.51043788	      0.00000000	      0.00000000	      0.00000000	   2776.31088800	      0.56518691	    -78.53179174	   -551.02026367	   -245.16715595	   -685.53772136	      0.00000000	      0.00000000	     -0.00000000	  -3106.85290962	      0.00000000	     -0.00000000	      0.00000000	      0.00000000	      0.00000000	      0.00000000	      0.00000000	      0.00000000	      0.00000000
      3.52000000	      0.00000000	     -0.00000000	      0.00000000	      0.00000000	      0.00000000	      0.00000000	      0.00000000	      0.00000000	      0.00000000	     -5.44422388	     85.67841339	   -575.23730469	   -230.42322547	  -1150.58790105	      0.00000000	      0.00000000	      0.00000000	   2548.89299862	     -0.51048261	    -80.47547908	   -551.22485352	   -242.11107733	   -684.52911349	      0.00000000	      0.00000000	     -0.00000000	  -2624.62402049	      0.00000000	     -0.00000000	      0.00000000	      0.00000000	      0.00000000	      0.00000000	      0.00000000	      0.00000000	      0.00000000
      3.53000000	      0.00000000	     -0.00000000	      0.00000000	      0.00000000	      0.00000000	      0.00000000	      0.00000000	      0.00000000	      0.00000000	     -6.64889622	     87.97390747	   -578.03778076	   -228.02779727	  -1150.42602405	      0.00000000	      0.00000000	      0.00000000	   1923.62405420	     -3.32938744	    -81.94035310	   -551.93103027	   -240.42446513	   -684.50411288	      0.00000000	     -0.00000000	     -0.00000000	  -2117.97958889	      0.00000000	     -0.00000000	      0.00000000	      0.00000000	      0.00000000	      0.00000000	      0.00000000	      0.00000000	      0.00000000
      3.54000000	      0.00000000	     -0.00000000	      0.00000000	      0.00000000	      0.00000000	      0.00000000	      0.00000000	      0.00000000	      0.00000000	     -6.98327398	     90.16037750	   -582.62927246	   -226.34887602	  -1151.26138747	      0.00000000	      0.00000000	     -0.00000000	   1646.49373020	     -6.20973027	    -83.15982764	   -553.83203125	   -238.80045920	   -684.40924213	      0.00000000	      0.00000000	     -0.00000000	  -1860.66942895	      0.00000000	     -0.00000000	      0.00000000	      0.00000000	      0.00000000	      0.00000000	      0.00000000	      0.00000000	      0.00000000
      3.55000000	      0.00000000	     -0.00000000	      0.00000000	      0.00000000	      0.00000000	      0.00000000	      0.00000000	      0.00000000	      0.00000000	     -8.20456982	     91.24105835	   -587.88806152	   -224.83850283	  -1150.88031011	      0.00000000	      0.00000000	      0.00000000	   1499.91350673	     -9.75691590	    -85.61288367	   -555.82781982	   -238.14402131	   -684.10415947	      0.00000000	      0.00000000	     -0.00000000	  -1604.44767237	      0.00000000	     -0.00000000	      0.00000000	      0.00000000	      0.00000000	      0.00000000	      0.00000000	      0.00000000	      0.00000000
      3.56000000	      0.00000000	     -0.00000000	      0.00000000	      0.00000000	      0.00000000	      0.00000000	      0.00000000	      0.00000000	      0.00000000	     -8.28298473	     92.50762177	   -597.58197021	   -224.16160056	  -1151.25593295	      0.00000000	      0.00000000	      0.00000000	   1544.26992433	    -14.22151779	    -89.87363310	   -559.01916504	   -236.82367985	   -683.55483363	      0.00000000	      0.00000000	     -0.00000000	  -1355.83399354	      0.00000000	     -0.00000000	      0.00000000	      0.00000000	      0.00000000	      0.00000000	      0.00000000	      0.00000000	      0.00000000
